<?xml version="1.0" encoding="UTF-8" standalone="no"?>

<svg
   version="1.0"
   x="0px"
   y="0px"
   width="692px"
   height="100px"
   viewBox="0 0 692 100"
   id="svg17"
   xmlns="http://www.w3.org/2000/svg"
   xmlns:svg="http://www.w3.org/2000/svg">
  <defs
     id="defs21" />
  <g
     style="fill:#404040;fill-opacity:1">
    <g
       style="fill:#404040;fill-opacity:1">
      <g
         style="fill:#404040;fill-opacity:1">
        <polygon
           fill="#E7E7E7"
           stroke="none"
           fill-opacity="1"
           points="36.918274,90.754761 35.066498,90.700012 33.261383,90.535706 31.503052,90.261902 29.791473,89.878540 28.126617,89.385681 26.508453,88.783264 24.937073,88.071289 23.412384,87.249817 21.934448,86.318787 20.503265,85.278259 19.118805,84.128174 17.781067,82.868591 16.538269,81.547668 15.403534,80.178528 14.376862,78.761169 13.458252,77.295654 12.647705,75.781921 11.945251,74.220032 11.350891,72.609924 10.864563,70.951599 10.486328,69.245178 10.216125,67.490417 10.054016,65.687561 10.000000,63.836487 10.000000,61.593323 10.000000,59.350159 10.000000,57.106934 10.000000,54.863708 10.000000,52.620544 10.000000,50.377380 10.000000,48.134216 10.000000,45.891052 10.000000,43.647827 10.000000,41.404602 10.000000,39.161438 10.000000,36.918274 10.055450,35.083923 10.221527,33.295959 10.497864,31.554016 10.884125,29.857697 11.379944,28.206665 11.984863,26.600525 12.698578,25.038910 13.520721,23.521484 14.450958,22.047882 15.488861,20.617706 16.634064,19.230591 17.886200,17.886200 19.207153,16.626587 20.576263,15.476532 21.993622,14.435974 23.459106,13.505005 24.972839,12.683502 26.534760,11.971558 28.144867,11.369141 29.803131,10.876251 31.509644,10.492889 33.264343,10.219055 35.067200,10.054749 36.918274,10.000000 39.161438,10.000000 41.404633,10.000000 43.647827,10.000000 45.890961,10.000000 48.134155,10.000000 50.377350,10.000000 52.620514,10.000000 54.863678,10.000000 57.106873,10.000000 59.350067,10.000000 61.593262,10.000000 63.836517,10.000000 63.836517,16.729553 63.836517,23.459137 63.836517,30.188690 63.836517,36.918274 63.836517,43.647827 63.836517,50.377380 63.836517,57.106995 63.836517,63.836487 63.836517,70.566101 63.836517,77.295654 63.836517,84.025208 63.836517,90.754761 62.714935,90.754761 61.593323,90.754761 60.471741,90.754761 59.350128,90.754761 58.228485,90.754761 57.106873,90.754761 55.985321,90.754761 54.863678,90.754761 53.742065,90.754761 52.620483,90.754761 51.498871,90.754761 50.377411,90.754761 50.377411,85.146790 50.377411,79.538879 50.377411,73.930847 50.377411,68.322937 50.377411,62.714905 50.377411,57.106995 50.377411,51.498962 50.377411,45.891052 50.377411,40.283020 50.377411,34.675110 50.377411,29.067108 50.377411,23.459137 49.255768,23.459137 48.134155,23.459137 47.012573,23.459137 45.890961,23.459137 44.769379,23.459137 43.647766,23.459137 42.526184,23.459137 41.404602,23.459137 40.282990,23.459137 39.161346,23.459137 38.039764,23.459137 36.918274,23.459137 35.999725,23.486206 35.101959,23.567688 34.225372,23.703888 33.370300,23.895264 32.537170,24.142090 31.726288,24.444824 30.938080,24.803772 30.172821,25.219330 29.431030,25.691833 28.712952,26.221680 28.019073,26.809204 27.349640,27.454803 26.728241,28.130981 26.160889,28.827576 25.647583,29.544647 25.188263,30.282135 24.782990,31.040100 24.431763,31.818542 24.134552,32.617371 23.891388,33.436646 23.702301,34.276367 23.567200,35.136536 23.486176,36.017151 23.459106,36.918274 23.459106,39.161438 23.459106,41.404602 23.459106,43.647827 23.459106,45.891052 23.459106,48.134216 23.459106,50.377380 23.459106,52.620544 23.459106,54.863708 23.459106,57.106995 23.459106,59.350159 23.459106,61.593323 23.459106,63.836487 23.484772,64.755737 23.562347,65.655212 23.692444,66.534241 23.875824,67.392151 24.113251,68.228088 24.405487,69.041443 24.753143,69.831360 25.157104,70.597229 25.617981,71.338257 26.136566,72.053772 26.713562,72.742981 27.349640,73.405090 28.026550,74.026550 28.725372,74.593933 29.446106,75.107239 30.188690,75.566528 30.953217,75.971802 31.739624,76.322998 32.548004,76.620178 33.378235,76.863342 34.230347,77.052490 35.104431,77.187561 36.000366,77.268616 36.918274,77.295654 36.918274,78.417236 36.918274,79.538879 36.918274,80.660400 36.918274,81.782043 36.918274,82.903625 36.918274,84.025208 36.918274,85.146790 36.918274,86.268372 36.918274,87.389954 36.918274,88.511597 36.918274,89.633179 36.918274,90.754761 36.918274,90.754761 36.918274,90.754761 36.918274,90.754761 36.918274,90.754761 36.918274,90.754761 36.918274,90.754761 36.918274,90.754761 36.918274,90.754761 36.918274,90.754761 36.918274,90.754761 36.918274,90.754761 36.918243,90.754761"
           style="fill:#404040;fill-opacity:1" />
        <polygon
           fill="#E7E7E7"
           stroke="none"
           fill-opacity="1"
           points="158.050415,90.754761 158.050415,86.268372 158.050415,81.782043 158.050415,77.295654 158.050415,72.809265 158.050415,68.322937 158.050415,63.836487 158.050415,59.350159 158.050415,54.863708 158.050415,50.377380 158.050415,45.891052 158.050415,41.404602 158.050415,36.918274 158.105896,35.083923 158.271973,33.295959 158.548279,31.554016 158.934570,29.857697 159.430298,28.206665 160.035278,26.600525 160.749023,25.038910 161.571167,23.521484 162.501343,22.047882 163.539307,20.617706 164.684509,19.230591 165.936646,17.886200 167.257568,16.626587 168.626709,15.476532 170.044067,14.435974 171.509583,13.505005 173.023254,12.683502 174.585205,11.971558 176.195251,11.369141 177.853577,10.876251 179.560120,10.492889 181.314758,10.219055 183.117615,10.054749 184.968750,10.000000 186.803040,10.056152 188.590942,10.224426 190.332947,10.504395 192.029236,10.895691 193.680298,11.398010 195.286377,12.010956 196.848022,12.734161 198.365417,13.567261 199.839050,14.509888 201.269226,15.561707 202.656372,16.722321 204.000732,17.991364 204.088379,18.079712 204.176025,18.169525 204.263611,18.260803 204.351257,18.353546 204.438904,18.447723 204.526550,18.543396 204.614136,18.640503 204.701782,18.739075 204.789429,18.839142 204.877075,18.940613 204.964661,19.043579 205.052246,19.147980 205.157471,19.042908 205.262756,18.937897 205.368103,18.832947 205.473450,18.728027 205.578857,18.623108 205.684204,18.518158 205.789490,18.413147 205.894714,18.308044 205.999756,18.202820 206.104736,18.097473 206.209534,17.991943 206.314026,17.886200 207.634949,16.626587 209.004089,15.476532 210.421387,14.435974 211.886902,13.504974 213.400696,12.683502 214.962585,11.971558 216.572693,11.369110 218.230957,10.876251 219.937439,10.492889 221.692139,10.219055 223.494995,10.054749 225.346069,10.000000 227.179749,10.056854 228.965942,10.226898 230.705322,10.509399 232.398804,10.903595 234.046936,11.408813 235.650635,12.024323 237.210388,12.749329 238.727173,13.583099 240.201599,14.524902 241.634399,15.574066 243.026306,16.729767 244.378174,17.991364 245.637695,19.311554 246.787781,20.678497 247.828369,22.092194 248.759399,23.552582 249.580811,25.059753 250.292847,26.613617 250.895203,28.214233 251.388123,29.861572 251.771484,31.555603 252.045288,33.296448 252.209595,35.083984 252.264343,36.918274 252.264343,41.404602 252.264343,45.891052 252.264343,50.377380 252.264343,54.863708 252.264343,59.350159 252.264343,63.836487 252.264343,68.322937 252.264343,72.809265 252.264343,77.295654 252.264343,81.782043 252.264343,86.268372 252.264343,90.754761 251.142761,90.754761 250.021179,90.754761 248.899536,90.754761 247.777954,90.754761 246.656372,90.754761 245.534790,90.754761 244.413147,90.754761 243.291565,90.754761 242.170044,90.754761 241.048401,90.754761 239.926819,90.754761 238.805237,90.754761 238.805237,86.268372 238.805237,81.782043 238.805237,77.295654 238.805237,72.809265 238.805237,68.322937 238.805237,63.836487 238.805237,59.350159 238.805237,54.863708 238.805237,50.377380 238.805237,45.891052 238.805237,41.404602 238.805237,36.918274 238.777466,36.017151 238.694214,35.136536 238.555481,34.276367 238.361206,33.436646 238.111511,32.617371 237.806335,31.818542 237.445618,31.040100 237.029358,30.282135 236.557678,29.544647 236.030457,28.827576 235.447754,28.130981 234.809570,27.454803 234.133423,26.816589 233.436768,26.233917 232.719727,25.706696 231.982178,25.234985 231.224243,24.818756 230.445801,24.458038 229.646973,24.152832 228.827698,23.903076 227.987976,23.708832 227.127808,23.570099 226.247131,23.486877 225.346069,23.459137 224.427551,23.486206 223.529785,23.567688 222.653198,23.703888 221.798096,23.895264 220.964966,24.142090 220.154053,24.444824 219.365845,24.803772 218.600647,25.219330 217.858826,25.691833 217.140747,26.221680 216.446838,26.809204 215.777527,27.454803 215.156067,28.130981 214.588745,28.827576 214.075378,29.544647 213.616089,30.282135 213.210815,31.040100 212.859619,31.818542 212.562439,32.617371 212.319275,33.436646 212.130127,34.276367 211.995056,35.136536 211.914001,36.017151 211.886963,36.918274 211.886963,41.404602 211.886963,45.891052 211.886963,50.377380 211.886963,54.863708 211.886963,59.350159 211.886963,63.836487 211.886963,68.322937 211.886963,72.809265 211.886963,77.295654 211.886963,81.782043 211.886963,86.268372 211.886963,90.754761 210.765381,90.754761 209.643799,90.754761 208.522217,90.754761 207.400574,90.754761 206.278992,90.754761 205.157410,90.754761 204.035828,90.754761 202.914246,90.754761 201.792603,90.754761 200.671082,90.754761 199.549500,90.754761 198.427856,90.754761 198.427856,86.268372 198.427856,81.782043 198.427856,77.295654 198.427856,72.809265 198.427856,68.322937 198.427856,63.836487 198.427856,59.350159 198.427856,54.863708 198.427856,50.377380 198.427856,45.891052 198.427856,41.404602 198.427856,36.918274 198.400085,36.017151 198.316833,35.136536 198.178101,34.276367 197.983887,33.436646 197.734131,32.617371 197.428955,31.818542 197.068176,31.040100 196.651978,30.282135 196.180237,29.544647 195.653015,28.827576 195.070312,28.130981 194.432190,27.454803 193.755981,26.816589 193.059387,26.233917 192.342285,25.706696 191.604797,25.234985 190.846863,24.818756 190.068481,24.458038 189.269592,24.152832 188.450317,23.903076 187.610596,23.708832 186.750427,23.570099 185.869812,23.486877 184.968750,23.459137 184.050171,23.486206 183.152405,23.567688 182.275757,23.703888 181.420715,23.895264 180.587524,24.142090 179.776672,24.444824 178.988464,24.803772 178.223267,25.219330 177.481445,25.691833 176.763367,26.221680 176.069458,26.809204 175.400085,27.454803 174.778748,28.130981 174.211304,28.827576 173.697998,29.544647 173.238708,30.282135 172.833435,31.040100 172.482178,31.818542 172.184998,32.617371 171.941833,33.436646 171.752747,34.276367 171.617615,35.136536 171.536560,36.017151 171.509583,36.918274 171.509583,41.404602 171.509583,45.891052 171.509583,50.377380 171.509583,54.863708 171.509583,59.350159 171.509583,63.836487 171.509583,68.322937 171.509583,72.809265 171.509583,77.295654 171.509583,81.782043 171.509583,86.268372 171.509583,90.754761 170.387939,90.754761 169.266357,90.754761 168.144836,90.754761 167.023193,90.754761 165.901611,90.754761 164.780029,90.754761 163.658447,90.754761 162.536865,90.754761 161.415283,90.754761 160.293640,90.754761 159.172058,90.754761 158.106567,90.754761"
           style="fill:#404040;fill-opacity:1" />
        <polygon
           fill="#E7E7E7"
           stroke="none"
           fill-opacity="1"
           points="346.478271,90.754761 346.478271,89.633179 346.478271,88.511597 346.478271,87.389954 346.478271,86.268372 346.478271,85.146790 346.478271,84.025208 346.478271,82.903625 346.478271,81.782043 346.478271,80.660461 346.478271,79.538879 346.478271,78.417297 346.478271,77.295654 348.721436,77.295654 350.964661,77.295654 353.207825,77.295654 355.451050,77.295654 357.694214,77.295654 359.937439,77.295654 362.180603,77.295654 364.423767,77.295654 366.666992,77.295654 368.910156,77.295654 371.153381,77.295654 373.396484,77.295654 374.298279,77.269348 375.180664,77.190002 376.043335,77.057434 376.885864,76.871216 377.708008,76.630920 378.509338,76.336243 379.289551,75.986755 380.048096,75.582214 380.784851,75.122131 381.499268,74.606140 382.191101,74.033997 382.859985,73.405090 383.498169,72.728210 384.080872,72.029419 384.608093,71.308716 385.079834,70.566101 385.496094,69.801575 385.856750,69.015137 386.161987,68.206848 386.411682,67.376526 386.605957,66.524414 386.744690,65.650330 386.827942,64.754395 386.855652,63.836487 386.827942,62.935486 386.744690,62.054871 386.605957,61.194641 386.411682,60.354919 386.161987,59.535583 385.856750,58.736755 385.496094,57.958374 385.079834,57.200439 384.608093,56.462891 384.080872,55.745911 383.498169,55.049255 382.859985,54.373108 382.183777,53.734863 381.487183,53.152161 380.770142,52.624939 380.032593,52.153259 379.274719,51.737000 378.496216,51.376282 377.697388,51.071106 376.878174,50.821350 376.038391,50.627136 375.178223,50.488403 374.297546,50.405090 373.396484,50.377380 371.544739,50.322632 369.739685,50.158325 367.981323,49.884460 366.269714,49.501160 364.604858,49.008240 362.986694,48.405823 361.415344,47.693909 359.890625,46.872375 358.412720,45.941345 356.981567,44.900879 355.597107,43.750793 354.259338,42.491150 353.016479,41.170227 351.881775,39.801086 350.855164,38.383789 349.936523,36.918274 349.125977,35.404541 348.423523,33.842590 347.829163,32.232544 347.342834,30.574249 346.964600,28.867767 346.694397,27.113068 346.532288,25.310211 346.478271,23.459137 346.478271,22.337524 346.478271,21.215942 346.478271,20.094360 346.478271,18.972748 346.478271,17.851166 346.478271,16.729584 346.478271,15.607971 346.478271,14.486389 346.478271,13.364807 346.478271,12.243195 346.478271,11.121613 346.478271,10.000000 347.599915,10.000000 348.721436,10.000000 349.843079,10.000000 350.964661,10.000000 352.086182,10.000000 353.207825,10.000000 354.329468,10.000000 355.451050,10.000000 356.572571,10.000000 357.694214,10.000000 358.815796,10.000000 359.937439,10.000000 359.937439,11.121582 359.937439,12.243164 359.937439,13.364777 359.937439,14.486359 359.937439,15.607941 359.937439,16.729553 359.937439,17.851135 359.937439,18.972717 359.937439,20.094330 359.937439,21.215912 359.937439,22.337524 359.937439,23.459137 359.963074,24.378357 360.040588,25.277832 360.170715,26.156891 360.354065,27.014740 360.591553,27.850677 360.883728,28.664032 361.231445,29.453979 361.635376,30.219849 362.096252,30.960876 362.614807,31.676331 363.191833,32.365540 363.827881,33.027710 364.504822,33.649109 365.203613,34.216492 365.924316,34.729858 366.666992,35.189148 367.431458,35.594421 368.217896,35.945618 369.026245,36.242798 369.856506,36.486023 370.708679,36.675110 371.582642,36.810181 372.478699,36.891235 373.396484,36.918274 375.230164,36.975098 377.016418,37.145142 378.755798,37.427673 380.449219,37.821838 382.097351,38.327087 383.700989,38.942566 385.260803,39.667542 386.777527,40.501343 388.252014,41.443176 389.684753,42.492310 391.076782,43.648010 392.428589,44.909607 393.688171,46.229797 394.838257,47.596741 395.878784,49.010437 396.809753,50.470886 397.631287,51.977966 398.343201,53.531860 398.945679,55.132507 399.438538,56.779846 399.821960,58.473877 400.095764,60.214661 400.260071,62.002258 400.314819,63.836487 400.258667,65.687683 400.090393,67.490906 399.810364,69.246765 399.419067,70.955505 398.916809,72.617493 398.303894,74.233093 397.580688,75.802795 396.747559,77.326721 395.804932,78.805481 394.753113,80.239319 393.592529,81.628601 392.323425,82.973694 391.003235,84.216492 389.636292,85.351257 388.222595,86.377930 386.762207,87.296570 385.255066,88.107056 383.701172,88.809509 382.100586,89.403870 380.453186,89.890198 378.759155,90.268494 377.018311,90.538635 375.230774,90.700745 373.396484,90.754761 371.153381,90.754761 368.910156,90.754761 366.666992,90.754761 364.423767,90.754761 362.180603,90.754761 359.937439,90.754761 357.694214,90.754761 355.451050,90.754761 353.207825,90.754761 350.964661,90.754761 348.721436,90.754761 346.590393,90.754761"
           style="fill:#404040;fill-opacity:1" />
        <polygon
           fill="#E7E7E7"
           stroke="none"
           fill-opacity="1"
           points="507.987793,90.754761 506.136047,90.700012 504.330994,90.535706 502.572693,90.261902 500.861084,89.878540 499.196167,89.385681 497.578003,88.783264 496.006653,88.071289 494.481934,87.249817 493.004028,86.318787 491.572754,85.278259 490.188354,84.128174 488.850586,82.868591 487.607788,81.547668 486.473022,80.178528 485.446350,78.761169 484.527832,77.295654 483.717285,75.781921 483.014832,74.220032 482.420410,72.609924 481.934143,70.951599 481.555847,69.245178 481.285706,67.490417 481.123596,65.687561 481.069519,63.836487 481.125000,62.002197 481.291016,60.214233 481.567383,58.472290 481.953735,56.775940 482.449463,55.124939 483.054382,53.518738 483.768127,51.957214 484.590271,50.439758 485.520508,48.966125 486.558411,47.535950 487.703613,46.148865 488.955750,44.804504 490.276733,43.544861 491.645874,42.394775 493.063171,41.354248 494.528687,40.423279 496.042419,39.601746 497.604309,38.889832 499.214417,38.287415 500.872681,37.794495 502.579224,37.411194 504.333862,37.137268 506.136719,36.973022 507.987793,36.918274 510.231079,36.918274 512.474182,36.918274 514.717407,36.918274 516.960571,36.918274 519.203796,36.918274 521.446960,36.918274 523.690186,36.918274 525.933350,36.918274 528.176575,36.918274 530.419739,36.918274 532.662964,36.918274 534.906128,36.918274 534.906128,38.039856 534.906128,39.161438 534.906128,40.283020 534.906128,41.404602 534.906128,42.526245 534.906128,43.647827 534.906128,44.769409 534.906128,45.891052 534.906128,47.012634 534.906128,48.134216 534.906128,49.255798 534.906128,50.377380 532.662903,50.377380 530.419739,50.377380 528.176514,50.377380 525.933350,50.377380 523.690125,50.377380 521.446960,50.377380 519.203735,50.377380 516.960571,50.377380 514.717346,50.377380 512.474182,50.377380 510.230957,50.377380 507.987793,50.377380 507.069275,50.404480 506.171509,50.485901 505.294922,50.622131 504.439819,50.813538 503.606689,51.060364 502.795776,51.363098 502.007507,51.721985 501.242310,52.137573 500.500488,52.610046 499.782471,53.139954 499.088562,53.727478 498.419189,54.373108 497.797852,55.049255 497.230408,55.745911 496.717163,56.462891 496.257751,57.200439 495.852600,57.958374 495.501343,58.736755 495.204163,59.535583 494.960938,60.354919 494.771851,61.194641 494.636780,62.054871 494.555725,62.935486 494.528687,63.836487 494.554382,64.755737 494.631897,65.655212 494.762024,66.534241 494.945374,67.392151 495.182861,68.228088 495.475037,69.041443 495.822754,69.831360 496.226685,70.597229 496.687561,71.338257 497.206177,72.053772 497.783081,72.742981 498.419189,73.405090 499.096130,74.026550 499.794922,74.593933 500.515625,75.107239 501.258301,75.566528 502.022766,75.971802 502.809204,76.322998 503.617554,76.620178 504.447815,76.863342 505.299988,77.052490 506.173950,77.187561 507.069946,77.268616 507.987793,77.295654 510.231079,77.295654 512.474182,77.295654 514.717407,77.295654 516.960571,77.295654 519.203796,77.295654 521.446960,77.295654 523.690186,77.295654 525.933350,77.295654 528.176575,77.295654 530.419739,77.295654 532.662964,77.295654 534.906128,77.295654 534.906128,78.417236 534.906128,79.538879 534.906128,80.660400 534.906128,81.782043 534.906128,82.903625 534.906128,84.025208 534.906128,85.146790 534.906128,86.268372 534.906128,87.389954 534.906128,88.511597 534.906128,89.633179 534.906128,90.754761 532.662903,90.754761 530.419739,90.754761 528.176514,90.754761 525.933350,90.754761 523.690125,90.754761 521.446960,90.754761 519.203735,90.754761 516.960571,90.754761 514.717346,90.754761 512.474182,90.754761 510.230957,90.754761 508.099915,90.754761"
           style="fill:#404040;fill-opacity:1" />
        <polygon
           fill="#E7E7E7"
           stroke="none"
           fill-opacity="1"
           points="481.069519,23.459137 481.069519,22.337524 481.069519,21.215942 481.069519,20.094360 481.069519,18.972748 481.069519,17.851166 481.069519,16.729584 481.069519,15.607971 481.069519,14.486389 481.069519,13.364807 481.069519,12.243195 481.069519,11.121613 481.069519,10.000000 485.555908,10.000000 490.042297,10.000000 494.528687,10.000000 499.015015,10.000000 503.501404,10.000000 507.987793,10.000000 512.474182,10.000000 516.960571,10.000000 521.446960,10.000000 525.933350,10.000000 530.419617,10.000000 534.906128,10.000000 534.906128,11.121582 534.906128,12.243164 534.906128,13.364777 534.906128,14.486359 534.906128,15.607941 534.906128,16.729553 534.906128,17.851135 534.906128,18.972717 534.906128,20.094330 534.906128,21.215912 534.906128,22.337524 534.906128,23.459137 530.419739,23.459137 525.933350,23.459137 521.446960,23.459137 516.960571,23.459137 512.474182,23.459137 507.987854,23.459137 503.501465,23.459137 499.015076,23.459137 494.528748,23.459137 490.042358,23.459137 485.556030,23.459137 481.293884,23.459137"
           style="fill:#404040;fill-opacity:1" />
        <polygon
           fill="#E7E7E7"
           stroke="none"
           fill-opacity="1"
           points="669.497437,90.754761 669.497437,89.633179 669.497437,88.511597 669.497437,87.389954 669.497437,86.268372 669.497437,85.146790 669.497437,84.025208 669.497437,82.903625 669.497437,81.782043 669.497437,80.660461 669.497437,79.538879 669.497437,78.417297 669.497437,77.295654 669.469604,76.394592 669.386353,75.513977 669.247681,74.653748 669.053467,73.814026 668.803711,72.994690 668.498535,72.195862 668.137695,71.417480 667.721436,70.659546 667.249878,69.922058 666.722656,69.205017 666.139893,68.508362 665.501709,67.832214 664.825562,67.194031 664.128906,66.611267 663.411865,66.084106 662.674316,65.612366 661.916382,65.196167 661.138062,64.835449 660.339233,64.530212 659.519897,64.280457 658.680176,64.086243 657.820007,63.947510 656.939331,63.864319 656.038208,63.836487 653.795105,63.836487 651.551941,63.836487 649.308716,63.836487 647.065552,63.836487 644.822327,63.836487 642.579224,63.836487 640.335938,63.836487 638.092834,63.836487 635.849670,63.836487 633.606445,63.836487 631.363342,63.836487 629.120056,63.836487 629.120056,62.714905 629.120056,61.593323 629.120056,60.471741 629.120056,59.350159 629.120056,58.228577 629.120056,57.106934 629.120056,55.985413 629.120056,54.863708 629.120056,53.742126 629.120056,52.620544 629.120056,51.498962 629.120056,50.377380 631.363159,50.377380 633.606384,50.377380 635.849548,50.377380 638.092773,50.377380 640.335876,50.377380 642.579102,50.377380 644.822266,50.377380 647.065491,50.377380 649.308594,50.377380 651.551819,50.377380 653.794983,50.377380 656.038208,50.377380 656.940002,50.351013 657.822388,50.271790 658.684937,50.139221 659.527588,49.952942 660.349731,49.712708 661.151123,49.417969 661.931274,49.068542 662.689819,48.664001 663.426636,48.203857 664.140991,47.687927 664.832764,47.115662 665.501709,46.486877 666.139893,45.809998 666.722656,45.111145 667.249878,44.390442 667.721436,43.647827 668.137695,42.883301 668.498535,42.096863 668.803711,41.288513 669.053467,40.458313 669.247681,39.606140 669.386353,38.732117 669.469604,37.836121 669.497437,36.918274 669.469604,36.017151 669.386353,35.136536 669.247681,34.276367 669.053467,33.436646 668.803711,32.617371 668.498535,31.818542 668.137695,31.040100 667.721436,30.282135 667.249878,29.544647 666.722656,28.827576 666.139893,28.130981 665.501709,27.454803 664.825562,26.816589 664.128906,26.233917 663.411865,25.706696 662.674316,25.234985 661.916382,24.818756 661.138062,24.458038 660.339233,24.152832 659.519897,23.903076 658.680176,23.708832 657.820007,23.570099 656.939331,23.486877 656.038208,23.459137 653.795105,23.459137 651.551941,23.459137 649.308716,23.459137 647.065552,23.459137 644.822327,23.459137 642.579224,23.459137 640.335938,23.459137 638.092834,23.459137 635.849670,23.459137 633.606445,23.459137 631.363342,23.459137 629.120056,23.459137 629.120056,22.337524 629.120056,21.215942 629.120056,20.094360 629.120056,18.972748 629.120056,17.851166 629.120056,16.729584 629.120056,15.607971 629.120056,14.486389 629.120056,13.364807 629.120056,12.243195 629.120056,11.121613 629.120056,10.000000 631.363159,10.000000 633.606384,10.000000 635.849548,10.000000 638.092773,10.000000 640.335876,10.000000 642.579102,10.000000 644.822266,10.000000 647.065491,10.000000 649.308594,10.000000 651.551819,10.000000 653.794983,10.000000 656.038208,10.000000 657.871887,10.056854 659.658081,10.226898 661.397583,10.509399 663.090942,10.903595 664.739136,11.408813 666.342773,12.024323 667.902588,12.749329 669.419312,13.583099 670.893677,14.524902 672.326538,15.574066 673.718506,16.729767 675.070312,17.991364 676.329956,19.311554 677.479980,20.678497 678.520508,22.092194 679.451538,23.552582 680.273071,25.059753 680.984985,26.613617 681.587402,28.214233 682.080322,29.861572 682.463623,31.555603 682.737427,33.296448 682.901855,35.083984 682.956543,36.918274 682.900391,38.769409 682.732178,40.572693 682.452148,42.328491 682.060791,44.037231 681.558472,45.699219 680.945557,47.314880 680.222290,48.884460 679.389160,50.408447 678.446655,51.887207 677.394775,53.320984 676.234131,54.710266 674.965088,56.055481 674.876831,56.143127 674.786987,56.230713 674.695679,56.318359 674.603027,56.405945 674.508789,56.493591 674.413086,56.581238 674.315918,56.668823 674.217407,56.756409 674.117310,56.844055 674.015869,56.931702 673.912964,57.019348 673.808594,57.106995 673.808594,57.106995 673.808594,57.106995 673.808594,57.106995 673.808594,57.106995 673.808594,57.106995 673.808594,57.106995 673.808594,57.106995 673.808594,57.106995 673.808594,57.106995 673.808594,57.106995 673.808594,57.106995 673.808594,57.106995 673.913574,57.212158 674.018677,57.317444 674.123535,57.422791 674.228516,57.528198 674.333374,57.633606 674.438354,57.738892 674.543335,57.844177 674.648438,57.949402 674.753662,58.054504 674.859009,58.159424 674.964600,58.264221 675.070312,58.368713 676.329956,59.688904 677.480103,61.055908 678.520630,62.469543 679.451660,63.929993 680.273193,65.437134 680.984985,66.991028 681.587524,68.591614 682.080322,70.238953 682.463623,71.933044 682.737427,73.673828 682.901855,75.461365 682.956543,77.295654 682.956543,78.417236 682.956543,79.538879 682.956543,80.660400 682.956543,81.782043 682.956543,82.903625 682.956543,84.025208 682.956543,85.146790 682.956543,86.268372 682.956543,87.389954 682.956543,88.511597 682.956543,89.633179 682.956543,90.754761 681.834961,90.754761 680.713379,90.754761 679.591675,90.754761 678.470215,90.754761 677.348511,90.754761 676.226929,90.754761 675.105225,90.754761 673.983765,90.754761 672.862183,90.754761 671.740479,90.754761 670.618896,90.754761 669.553467,90.754761"
           style="fill:#404040;fill-opacity:1" />
      </g>
    </g>
  </g>
</svg>
