<svg width="222" height="32" viewBox="0 0 222 32" fill="none" xmlns="http://www.w3.org/2000/svg">
<path d="M11.8117 29.0414L11.2192 29.0239L10.6417 28.9713L10.0791 28.8837L9.5315 28.7611L8.99883 28.6033L8.4811 28.4106L7.97834 28.1827L7.49051 27.9199L7.01765 27.6219L6.55974 27.289L6.11678 26.9209L5.68877 26.5179L5.29114 26.0952L4.92808 25.6571L4.5996 25.2035L4.30569 24.7345L4.04635 24.2501L3.8216 23.7503L3.63144 23.2351L3.47584 22.7044L3.35482 22.1584L3.26837 21.5969L3.2165 21.0199L3.19922 20.4276V19.7098V18.992V18.2742V17.5563V16.8385V16.1207V15.4029V14.6851V13.9672V13.2494V12.5316V11.8138L3.21696 11.2268L3.2701 10.6546L3.35851 10.0972L3.48209 9.55441L3.64073 9.02608L3.83428 8.51211L4.06263 8.0124L4.32567 7.52682L4.6233 7.05527L4.95538 6.59761L5.32179 6.15374L5.72241 5.72353L6.14505 5.32046L6.5831 4.95244L7.03658 4.61946L7.50546 4.32155L7.98978 4.05867L8.48952 3.83085L9.00467 3.63808L9.53523 3.48035L10.0812 3.35768L10.6426 3.27005L11.2195 3.21747L11.8117 3.19995H12.5294H13.2471H13.9648H14.6825H15.4002H16.118H16.8357H17.5534H18.2711H18.9888H19.7065H20.4242V5.35341V7.50687V9.66032V11.8138V13.9672V16.1207V18.2742V20.4276V22.5811V24.7345V26.888V29.0414H20.0654H19.7065H19.3477H18.9888H18.6299H18.2711H17.9122H17.5534H17.1945H16.8356H16.4768H16.118V27.2469V25.4524V23.6578V21.8633V20.0687V18.2742V16.4796V14.6851V12.8905V11.096V9.30142V7.50687H15.7591H15.4002H15.0414H14.6825H14.3237H13.9648H13.606H13.2471H12.8883H12.5294H12.1705H11.8117L11.5178 7.51553L11.2306 7.54161L10.9501 7.58519L10.6765 7.64643L10.41 7.72541L10.1505 7.82229L9.89836 7.93715L9.65352 8.07013L9.41618 8.22133L9.18643 8.39088L8.96442 8.57889L8.75024 8.78548L8.55142 9.00186L8.3699 9.22477L8.20567 9.45423L8.05871 9.69023L7.92904 9.93277L7.81666 10.1819L7.72157 10.4375L7.64377 10.6997L7.58327 10.9684L7.54005 11.2436L7.51412 11.5254L7.50546 11.8138V12.5316V13.2494V13.9672V14.6851V15.4029V16.1207V16.8385V17.5563V18.2742V18.992V19.7098V20.4276L7.51367 20.7218L7.53849 21.0096L7.58012 21.2909L7.63879 21.5654L7.71476 21.8329L7.80826 22.0932L7.91949 22.346L8.04874 22.591L8.19619 22.8282L8.36212 23.0571L8.54673 23.2777L8.75024 23.4896L8.96682 23.6884L9.1904 23.87L9.421 24.0342L9.65859 24.1812L9.9032 24.3109L10.1548 24.4233L10.4135 24.5184L10.6791 24.5962L10.9517 24.6567L11.2314 24.6999L11.518 24.7259L11.8117 24.7345V25.0934V25.4524V25.8113V26.1702V26.5291V26.888V27.2469V27.6058V27.9647V28.3236V28.6825V29.0414H11.8117H11.8117Z" fill="#EAEAEA"/>
<path d="M50.5684 29.0414V27.6058V26.1702V24.7345V23.2989V21.8633V20.4276V18.992V17.5563V16.1207V14.6851V13.2494V11.8138L50.5861 11.2268L50.6392 10.6546L50.7277 10.0972L50.8512 9.55441L51.0099 9.02608L51.2034 8.51211L51.4318 8.0124L51.6948 7.52682L51.9924 7.05527L52.3245 6.59761L52.6909 6.15374L53.0916 5.72353L53.5142 5.32046L53.9522 4.95244L54.4057 4.61946L54.8746 4.32155L55.3589 4.05867L55.8587 3.83085L56.3738 3.63808L56.9044 3.48035L57.4504 3.35768L58.0118 3.27005L58.5886 3.21747L59.1809 3.19995L59.7678 3.21792L60.3398 3.27177L60.8971 3.36136L61.4399 3.48657L61.9681 3.64731L62.482 3.84346L62.9816 4.07488L63.4671 4.34147L63.9386 4.64311L64.3962 4.9797L64.84 5.35109L65.2702 5.75718L65.2982 5.78546L65.3262 5.8142L65.3543 5.8434L65.3823 5.87308L65.4103 5.90322L65.4384 5.93383L65.4664 5.96491L65.4945 5.99645L65.5225 6.02847L65.5505 6.06094L65.5786 6.09389L65.6066 6.1273L65.6403 6.09368L65.6739 6.06007L65.7076 6.02649L65.7413 5.99292L65.7751 5.95934L65.8088 5.92576L65.8425 5.89215L65.8761 5.85852L65.9097 5.82485L65.9433 5.79114L65.9769 5.75737L66.0103 5.72353L66.4329 5.32046L66.871 4.95244L67.3244 4.61946L67.7933 4.32154L68.2777 4.05867L68.7774 3.83085L69.2925 3.63807L69.8231 3.48035L70.3691 3.35768L70.9305 3.27005L71.5073 3.21747L72.0996 3.19995L72.6863 3.21814L73.2578 3.27256L73.8143 3.36296L74.3561 3.4891L74.8834 3.65077L75.3965 3.84773L75.8956 4.07974L76.3809 4.34654L76.8526 4.64792L77.311 4.98365L77.7564 5.35347L78.1889 5.75718L78.5919 6.17964L78.9599 6.61707L79.2928 7.06945L79.5907 7.53677L79.8535 8.01907L80.0813 8.5163L80.274 9.0285L80.4317 9.55565L80.5544 10.0977L80.642 10.6548L80.6946 11.2268L80.7121 11.8138V13.2494V14.6851V16.1207V17.5563V18.992V20.4276V21.8633V23.2989V24.7345V26.1702V27.6058V29.0414H80.3532H79.9944H79.6355H79.2767H78.9178H78.559H78.2001H77.8412H77.4824H77.1235H76.7647H76.4058V27.6058V26.1702V24.7345V23.2989V21.8633V20.4276V18.992V17.5563V16.1207V14.6851V13.2494V11.8138L76.397 11.5254L76.3703 11.2436L76.3259 10.9684L76.2638 10.6997L76.1839 10.4375L76.0862 10.1819L75.9708 9.93277L75.8377 9.69023L75.6867 9.45423L75.5181 9.22477L75.3316 9.00186L75.1274 8.78548L74.9111 8.58125L74.6882 8.3948L74.4588 8.22609L74.2228 8.07514L73.9803 7.94195L73.7312 7.82652L73.4757 7.72885L73.2135 7.64893L72.9449 7.58677L72.6697 7.54238L72.3879 7.51575L72.0996 7.50687L71.8057 7.51553L71.5185 7.54161L71.238 7.58519L70.9644 7.64643L70.6979 7.72541L70.4384 7.82229L70.1862 7.93715L69.9414 8.07013L69.704 8.22133L69.4743 8.39088L69.2523 8.57889L69.0381 8.78548L68.8393 9.00186L68.6578 9.22477L68.4935 9.45423L68.3466 9.69023L68.2169 9.93277L68.1046 10.1819L68.0095 10.4375L67.9317 10.6997L67.8712 10.9684L67.8279 11.2436L67.802 11.5254L67.7934 11.8138V13.2494V14.6851V16.1207V17.5563V18.992V20.4276V21.8633V23.2989V24.7345V26.1702V27.6058V29.0414H67.4345H67.0757H66.7168H66.3579H65.9991H65.6402H65.2814H64.9225H64.5637H64.2048H63.846H63.4871V27.6058V26.1702V24.7345V23.2989V21.8633V20.4276V18.992V17.5563V16.1207V14.6851V13.2494V11.8138L63.4782 11.5254L63.4516 11.2436L63.4072 10.9684L63.3451 10.6997L63.2652 10.4375L63.1675 10.1819L63.0521 9.93277L62.9189 9.69023L62.768 9.45423L62.5993 9.22477L62.4129 9.00186L62.2087 8.78548L61.9923 8.58125L61.7695 8.3948L61.54 8.22609L61.3041 8.07514L61.0616 7.94195L60.8125 7.82652L60.5569 7.72885L60.2948 7.64893L60.0261 7.58677L59.7509 7.54238L59.4692 7.51575L59.1809 7.50687L58.887 7.51553L58.5997 7.54161L58.3193 7.58519L58.0457 7.64643L57.7791 7.72541L57.5197 7.82229L57.2675 7.93715L57.0227 8.07013L56.7853 8.22133L56.5556 8.39088L56.3335 8.57889L56.1194 8.78548L55.9206 9.00186L55.739 9.22477L55.5748 9.45423L55.4279 9.69023L55.2982 9.93277L55.1858 10.1819L55.0907 10.4375L55.0129 10.6997L54.9524 10.9684L54.9092 11.2436L54.8832 11.5254L54.8746 11.8138V13.2494V14.6851V16.1207V17.5563V18.992V20.4276V21.8633V23.2989V24.7345V26.1702V27.6058V29.0414H54.5157H54.1569H53.7981H53.4392H53.0803H52.7215H52.3626H52.0038H51.6449H51.2861H50.9272H50.5863H50.5684Z" fill="#EAEAEA"/>
<path d="M110.855 29.0414V28.6825V28.3236V27.9647V27.6058V27.2469V26.888V26.5291V26.1702V25.8113V25.4524V25.0935V24.7345H111.573H112.291H113.009H113.726H114.444H115.162H115.879H116.597H117.315H118.033H118.75H119.468L119.756 24.7261L120.039 24.7007L120.315 24.6583L120.584 24.5987L120.847 24.5218L121.104 24.4275L121.353 24.3157L121.596 24.1862L121.832 24.039L122.06 23.8739L122.282 23.6908L122.496 23.4896L122.7 23.273L122.886 23.0493L123.055 22.8187L123.206 22.5811L123.339 22.3364L123.455 22.0848L123.552 21.8261L123.632 21.5604L123.694 21.2877L123.739 21.008L123.765 20.7213L123.774 20.4276L123.765 20.1393L123.739 19.8575L123.694 19.5822L123.632 19.3135L123.552 19.0513L123.455 18.7957L123.339 18.5466L123.206 18.3041L123.055 18.0681L122.886 17.8386L122.7 17.6157L122.496 17.3993L122.279 17.1951L122.057 17.0086L121.827 16.8399L121.591 16.689L121.349 16.5558L121.1 16.4403L120.844 16.3427L120.582 16.2628L120.313 16.2006L120.038 16.1562L119.756 16.1296L119.468 16.1207L118.875 16.1032L118.298 16.0506L117.735 15.963L117.188 15.8403L116.655 15.6826L116.137 15.4898L115.635 15.262L115.147 14.9991L114.674 14.7012L114.216 14.3682L113.773 14.0002L113.345 13.5971L112.947 13.1744L112.584 12.7363L112.256 12.2828L111.962 11.8138L111.703 11.3294L111.478 10.8296L111.288 10.3144L111.132 9.7837L111.011 9.23763L110.925 8.67613L110.873 8.09921L110.855 7.50687V7.14795V6.78905V6.43014V6.07123V5.71232V5.35342V4.9945V4.63559V4.27669V3.91777V3.55887V3.19995H111.214H111.573H111.932H112.291H112.65H113.009H113.367H113.726H114.085H114.444H114.803H115.162V3.55886V3.91776V4.27668V4.63558V4.99449V5.35341V5.71231V6.07122V6.43013V6.78904V7.14795V7.50687L115.17 7.80102L115.195 8.08885L115.236 8.37015L115.295 8.64466L115.371 8.91216L115.464 9.17243L115.576 9.42522L115.705 9.67029L115.852 9.90742L116.018 10.1364L116.203 10.3569L116.406 10.5688L116.623 10.7677L116.847 10.9492L117.077 11.1135L117.315 11.2605L117.559 11.3902L117.811 11.5025L118.07 11.5976L118.335 11.6755L118.608 11.736L118.888 11.7792L119.174 11.8051L119.468 11.8138L120.055 11.832L120.626 11.8864L121.183 11.9768L121.724 12.1029L122.252 12.2646L122.765 12.4616L123.264 12.6936L123.749 12.9604L124.221 13.2618L124.679 13.5975L125.125 13.9673L125.557 14.371L125.96 14.7935L126.328 15.2309L126.661 15.6833L126.959 16.1506L127.222 16.6329L127.45 17.1301L127.642 17.6423L127.8 18.1695L127.923 18.7116L128.01 19.2686L128.063 19.8407L128.08 20.4276L128.063 21.02L128.009 21.597L127.919 22.1589L127.794 22.7057L127.633 23.2375L127.437 23.7545L127.206 24.2568L126.939 24.7445L126.638 25.2177L126.301 25.6765L125.93 26.1211L125.524 26.5515L125.101 26.9492L124.664 27.3123L124.212 27.6409L123.744 27.9348L123.262 28.1942L122.765 28.419L122.253 28.6092L121.726 28.7648L121.184 28.8858L120.627 28.9723L120.055 29.0242L119.468 29.0414H118.75H118.033H117.315H116.597H115.879H115.162H114.444H113.726H113.009H112.291H111.573H110.891H110.855Z" fill="#EAEAEA"/>
<path d="M162.53 29.0414L161.938 29.0239L161.36 28.9713L160.798 28.8837L160.25 28.761L159.718 28.6033L159.2 28.4105L158.697 28.1827L158.209 27.9198L157.736 27.6219L157.278 27.2889L156.836 26.9209L156.408 26.5178L156.01 26.0951L155.647 25.657L155.318 25.2035L155.024 24.7345L154.765 24.2501L154.54 23.7503L154.35 23.2351L154.195 22.7044L154.074 22.1583L153.987 21.5968L153.935 21.0199L153.918 20.4276L153.936 19.8406L153.989 19.2684L154.077 18.711L154.201 18.1682L154.359 17.6399L154.553 17.1259L154.781 16.6262L155.044 16.1406L155.342 15.669L155.674 15.2114L156.041 14.7675L156.441 14.3373L156.864 13.9342L157.302 13.5662L157.755 13.2332L158.224 12.9353L158.709 12.6724L159.208 12.4446L159.723 12.2518L160.254 12.0941L160.8 11.9715L161.361 11.8838L161.938 11.8312L162.53 11.8137H163.248H163.966H164.684H165.401H166.119H166.837H167.554H168.272H168.99H169.708H170.425H171.143V12.1726V12.5315V12.8904V13.2493V13.6083V13.9672V14.3261V14.685V15.0439V15.4028V15.7617V16.1206H170.425H169.708H168.99H168.272H167.554H166.837H166.119H165.401H164.684H163.966H163.248H162.53L162.237 16.1293L161.949 16.1554L161.669 16.199L161.395 16.2602L161.129 16.3392L160.869 16.4361L160.617 16.5509L160.372 16.6839L160.135 16.8351L159.905 17.0047L159.683 17.1927L159.469 17.3993L159.27 17.6156L159.089 17.8386L158.924 18.068L158.777 18.304L158.648 18.5466L158.535 18.7956L158.44 19.0513L158.363 19.3135L158.302 19.5822L158.259 19.8574L158.233 20.1392L158.224 20.4276L158.232 20.7217L158.257 21.0095L158.299 21.2908L158.358 21.5654L158.434 21.8329L158.527 22.0931L158.638 22.3459L158.768 22.591L158.915 22.8281L159.081 23.0571L159.265 23.2776L159.469 23.4895L159.686 23.6884L159.909 23.8699L160.14 24.0342L160.377 24.1812L160.622 24.3109L160.874 24.4232L161.132 24.5183L161.398 24.5962L161.671 24.6567L161.95 24.6999L162.237 24.7258L162.53 24.7345H163.248H163.966H164.684H165.401H166.119H166.837H167.554H168.272H168.99H169.708H170.425H171.143V25.0934V25.4523V25.8112V26.1701V26.529V26.888V27.2469V27.6058V27.9647V28.3236V28.6825V29.0414H170.425H169.708H168.99H168.272H167.554H166.837H166.119H165.401H164.684H163.966H163.248H162.566H162.53Z" fill="#EAEAEA"/>
<path d="M153.918 7.50688V7.14796V6.78905V6.43015V6.07123V5.71233V5.35342V4.9945V4.6356V4.27669V3.91777V3.55887V3.19995H155.353H156.789H158.224H159.66H161.095H162.53H163.966H165.401H166.837H168.272H169.708H171.143V3.55886V3.91776V4.27668V4.63559V4.99449V5.35341V5.71232V6.07122V6.43014V6.78904V7.14796V7.50688H169.708H168.272H166.837H165.401H163.966H162.53H161.095H159.66H158.224H156.789H155.353H153.99H153.918Z" fill="#EAEAEA"/>
<path d="M214.206 29.0414V28.6825V28.3236V27.9647V27.6058V27.2469V26.888V26.5291V26.1702V25.8113V25.4524V25.0935V24.7345L214.197 24.4462L214.17 24.1644L214.126 23.8891L214.064 23.6204L213.984 23.3582L213.886 23.1026L213.771 22.8535L213.638 22.611L213.487 22.375L213.318 22.1455L213.132 21.9226L212.927 21.7062L212.711 21.502L212.488 21.3155L212.259 21.1468L212.023 20.9959L211.78 20.8627L211.531 20.7473L211.276 20.6496L211.014 20.5697L210.745 20.5075L210.47 20.4631L210.188 20.4365L209.9 20.4276H209.182H208.464H207.746H207.029H206.311H205.593H204.876H204.158H203.44H202.723H202.005H201.287V20.0687V19.7098V19.3509V18.992V18.6331V18.2742V17.9153V17.5563V17.1974V16.8385V16.4796V16.1207H202.005H202.723H203.44H204.158H204.876H205.593H206.311H207.029H207.746H208.464H209.182H209.9L210.188 16.1123L210.47 16.0869L210.746 16.0445L211.016 15.9849L211.279 15.908L211.535 15.8137L211.785 15.7019L212.028 15.5724L212.264 15.4252L212.492 15.2601L212.713 15.0769L212.927 14.8757L213.132 14.6591L213.318 14.4355L213.487 14.2049L213.638 13.9672L213.771 13.7226L213.886 13.4709L213.984 13.2123L214.064 12.9466L214.126 12.6739L214.17 12.3942L214.197 12.1075L214.206 11.8138L214.197 11.5254L214.17 11.2436L214.126 10.9684L214.064 10.6997L213.984 10.4375L213.886 10.1819L213.771 9.93277L213.638 9.69023L213.487 9.45423L213.318 9.22477L213.132 9.00186L212.927 8.78548L212.711 8.58125L212.488 8.3948L212.259 8.22609L212.023 8.07514L211.78 7.94195L211.531 7.82652L211.276 7.72885L211.014 7.64893L210.745 7.58677L210.47 7.54238L210.188 7.51575L209.9 7.50687H209.182H208.464H207.746H207.029H206.311H205.593H204.876H204.158H203.44H202.723H202.005H201.287V7.14795V6.78905V6.43014V6.07123V5.71232V5.35342V4.9945V4.63559V4.27669V3.91777V3.55887V3.19995H202.005H202.723H203.44H204.158H204.876H205.593H206.311H207.029H207.746H208.464H209.182H209.9L210.486 3.21814L211.058 3.27256L211.614 3.36296L212.156 3.4891L212.683 3.65077L213.197 3.84773L213.696 4.07974L214.181 4.34654L214.653 4.64792L215.111 4.98365L215.556 5.35347L215.989 5.75718L216.392 6.17964L216.76 6.61707L217.093 7.06945L217.391 7.53677L217.654 8.01907L217.881 8.5163L218.074 9.0285L218.232 9.55565L218.354 10.0977L218.442 10.6548L218.495 11.2268L218.512 11.8138L218.494 12.4062L218.44 12.9832L218.351 13.5451L218.225 14.0919L218.065 14.6237L217.869 15.1407L217.637 15.643L217.371 16.1306L217.069 16.6038L216.733 17.0626L216.361 17.5072L215.955 17.9377L215.927 17.9657L215.898 17.9938L215.869 18.0218L215.839 18.0498L215.809 18.0779L215.779 18.1059L215.748 18.134L215.716 18.162L215.684 18.19L215.652 18.2181L215.619 18.2461L215.585 18.2742L215.619 18.3078L215.652 18.3415L215.686 18.3752L215.72 18.409L215.753 18.4427L215.787 18.4764L215.82 18.5101L215.854 18.5437L215.888 18.5774L215.921 18.6109L215.955 18.6445L215.989 18.6779L216.392 19.1004L216.76 19.5378L217.093 19.9902L217.391 20.4575L217.654 20.9398L217.881 21.4371L218.074 21.9492L218.232 22.4764L218.354 23.0185L218.442 23.5756L218.495 24.1476L218.512 24.7345V25.0934V25.4524V25.8113V26.1702V26.5291V26.888V27.2469V27.6058V27.9647V28.3236V28.6825V29.0414H218.153H217.794H217.436H217.077H216.718H216.359H216H215.641H215.282H214.924H214.565H214.224H214.206Z" fill="#EAEAEA"/>
</svg>
